# xmcd
#
# Track frame offsets: 
#        150
#        31893
#        54734
#        96033
#        120612
#        141548
#        163560
#
# Disc length: 2451 seconds
#
# Revision: 4
# Processed by: cddbd v1.5.2PL0 Copyright (c) Steve Scherf et al.
# Submitted via: ExactAudioCopyFreeDBPlugin 1.0
#
DISCID=5c099107
DTITLE=Charlie Byrd - Blues Sonata
DYEAR=1961
DGENRE=Jazz
TTITLE0=Polonaise Pour Pietro
TTITLE1=Ballad In B Minor
TTITLE2=Scherzo For An Old Shoe
TTITLE3=Alexander's Ragtime Band
TTITLE4=Jordu
TTITLE5=That Old Devil Called Love
TTITLE6=Zing ! Went The Strings Of My Heart
EXTD=
EXTT0=
EXTT1=
EXTT2=
EXTT3=
EXTT4=
EXTT5=
EXTT6=
PLAYORDER=
